<?xml version="1.0" encoding="UTF-8" standalone="no"?>
<!-- Created with Inkscape (http://www.inkscape.org/) -->

<svg fill="currentColor"
   width="92.927704mm"
   height="9.2679672mm"
   viewBox="0 0 92.927704 9.2679672"
   version="1.1"
   id="svg5"
   xml:space="preserve"
   xmlns:inkscape="http://www.inkscape.org/namespaces/inkscape"
   xmlns:sodipodi="http://sodipodi.sourceforge.net/DTD/sodipodi-0.dtd"
   xmlns="http://www.w3.org/2000/svg"
   xmlns:svg="http://www.w3.org/2000/svg"><sodipodi:namedview
     id="namedview7"
     pagecolor="#505050"
     bordercolor="#ffffff"
     borderopacity="1"
     inkscape:showpageshadow="0"
     inkscape:pageopacity="0"
     inkscape:pagecheckerboard="1"
     inkscape:deskcolor="#505050"
     inkscape:document-units="mm"
     showgrid="false" /><defs
     id="defs2" /><g
     inkscape:label="Capa 1"
     inkscape:groupmode="layer"
     id="layer1"
     transform="translate(-65.731004,-77.358228)"><path
       style="fill:#000000;stroke-width:0.0964849"
       d="m 117.20296,86.508828 c -0.0261,-0.0681 -0.0362,-2.14284 -0.0223,-4.61045 l 0.0252,-4.48655 h 1.33716 1.33715 l 1.31618,2.5789 c 0.7239,1.41839 1.33789,2.57885 1.36443,2.5788 0.0265,-6e-5 0.63738,-1.16057 1.35743,-2.57891 l 1.30919,-2.57879 1.36921,-0.0268 1.3692,-0.0268 -0.0251,4.60981 -0.025,4.60982 h -1.06133 -1.06134 l -0.0256,-2.72571 c -0.0141,-1.49913 -0.0581,-2.7257 -0.0979,-2.7257 -0.0398,0 -0.57096,1.00948 -1.18044,2.24328 l -1.10815,2.24328 h -0.82012 -0.82013 l -1.10957,-2.24229 c -0.61027,-1.23326 -1.14147,-2.24273 -1.18044,-2.24328 -0.039,-7.3e-4 -0.0824,1.22558 -0.0965,2.72471 l -0.0256,2.72571 -1.03899,0.0274 c -0.77726,0.0205 -1.05094,-0.004 -1.08647,-0.0965 z m 11.66703,-0.0198 c -0.0302,-0.0787 0.83039,-2.15329 1.91246,-4.61014 l 1.96739,-4.46701 h 1.29383 1.29384 l 1.91637,4.47089 c 1.054,2.45899 1.89234,4.53352 1.86296,4.61006 -0.0434,0.11319 -0.28304,0.13412 -1.28344,0.11215 l -1.23003,-0.027 -0.32923,-0.796 -0.32923,-0.796 h -1.99901 -1.99901 l -0.32922,0.796 -0.32922,0.796 -1.18177,0.0271 c -0.97312,0.0223 -1.19146,0.002 -1.23669,-0.11604 z m 6.08502,-4.08405 c -0.49918,-1.33493 -0.94053,-2.3339 -1.0117,-2.28992 -0.082,0.0507 -1.15523,2.6939 -1.15523,2.84509 0,0.0587 0.46928,0.0961 1.20523,0.0961 h 1.20524 z m 5.11479,4.1036 c -0.0261,-0.068 -0.0361,-2.14254 -0.0222,-4.61014 l 0.0251,-4.48656 2.17091,-0.0282 c 1.194,-0.0155 2.51438,0.0171 2.93417,0.0724 1.34858,0.17766 2.26573,0.77451 2.75529,1.79307 0.31892,0.6635 0.32917,1.96876 0.0216,2.75025 -0.19157,0.48678 -0.71269,1.12113 -1.20964,1.47251 l -0.17809,0.12592 0.88806,1.36911 c 0.54231,0.83607 0.86596,1.42669 0.8313,1.51699 -0.0478,0.1245 -0.25893,0.14362 -1.33559,0.12095 l -1.27884,-0.0269 -0.67693,-1.25431 -0.67692,-1.2543 h -0.86837 -0.86836 l -0.0482,1.2543 -0.0483,1.25431 -1.18382,0.0271 c -0.89345,0.0205 -1.19545,-0.003 -1.23121,-0.0965 z m 5.00851,-4.55083 c 0.45526,-0.19022 0.73525,-0.68929 0.73525,-1.31053 0,-0.44236 -0.0394,-0.54417 -0.31811,-0.82292 -0.17495,-0.17495 -0.48973,-0.36575 -0.69951,-0.42399 -0.4066,-0.11289 -1.85561,-0.14612 -2.11026,-0.0484 -0.12903,0.0495 -0.15261,0.2657 -0.15261,1.39903 v 1.34047 h 1.11267 c 0.72982,0 1.22275,-0.046 1.43257,-0.13366 z m 4.69113,0.0372 v -4.63128 h 1.20607 1.20606 v 1.9297 c 0,1.06134 0.0326,1.92711 0.0724,1.92394 0.0398,-0.003 0.82989,-0.87153 1.75576,-1.9297 l 1.6834,-1.92394 h 1.38 c 0.82606,0 1.38001,0.0375 1.38001,0.0935 0,0.0514 -0.55359,0.68957 -1.23019,1.41812 -0.6766,0.72855 -1.43205,1.54531 -1.67878,1.81501 l -0.4486,0.49038 1.81803,2.65043 c 0.99991,1.45773 1.78452,2.68423 1.74357,2.72554 -0.041,0.0413 -0.69981,0.063 -1.46412,0.0482 l -1.38966,-0.0269 -1.20786,-1.75731 -1.20786,-1.75732 -0.60303,0.61304 -0.60303,0.61305 v 1.16839 1.1684 h -1.20606 -1.20607 z m -84.038441,0.0117 v -4.54655 l 2.33976,7.3e-4 c 2.56124,7.3e-4 3.34635,0.0841 4.07649,0.43265 0.5846,0.27906 0.80535,0.46856 1.09499,0.93996 0.26442,0.43034 0.30077,1.25405 0.0747,1.69133 -0.16487,0.31881 -0.73775,0.85244 -1.08503,1.01067 -0.12614,0.0575 -0.22918,0.13009 -0.22898,0.16137 2.1e-4,0.0313 0.19573,0.13722 0.43452,0.23542 0.5966,0.24535 1.16401,0.90923 1.29361,1.51354 0.21289,0.9927 -0.13406,1.82708 -1.00766,2.4233 -0.71933,0.49093 -1.37464,0.58786 -4.3149,0.63825 l -2.67745,0.0458 z m 5.09853,2.60109 c 0.63014,-0.32148 0.7897,-1.03933 0.32875,-1.47907 -0.40305,-0.38451 -0.71061,-0.45837 -1.90847,-0.45837 h -1.0999 l -0.0999,0.18662 c -0.10774,0.20131 -0.13417,1.36409 -0.0391,1.71895 l 0.0582,0.21709 h 1.19866 c 0.99155,0 1.26138,-0.032 1.56173,-0.18522 z m 0.009,-3.81283 c 0.52979,-0.50808 0.29983,-1.35782 -0.43292,-1.59965 -0.36157,-0.11933 -2.19754,-0.0957 -2.32314,0.0299 -0.10539,0.10539 -0.1659,1.16211 -0.0898,1.56789 l 0.0654,0.34855 1.24247,-0.0317 1.24247,-0.0317 z m 4.51166,5.67344 c -0.037,-0.037 -0.0673,-2.07901 -0.0673,-4.53778 v -4.47047 l 2.24328,7.3e-4 c 1.2338,3.7e-4 2.52549,0.0461 2.87043,0.10155 1.55503,0.24999 2.54834,1.09632 2.77446,2.36395 0.11728,0.65744 -0.0105,1.74509 -0.26994,2.29693 -0.1931,0.41076 -0.967,1.21887 -1.16732,1.21887 -0.19564,0 -0.0345,0.33362 0.7488,1.55055 0.45744,0.71065 0.85285,1.34718 0.87869,1.41453 0.0365,0.095 -0.23116,0.12244 -1.19524,0.12244 h -1.24223 l -0.67896,-1.27842 -0.67895,-1.27842 h -0.95957 -0.95957 l -0.0482,1.2543 -0.0482,1.25431 -1.06639,0.0271 c -0.58652,0.0149 -1.09669,-0.003 -1.1337,-0.0402 z m 5.11157,-4.51762 c 0.87451,-0.51924 0.80743,-2.01815 -0.11341,-2.53437 -0.3381,-0.18953 -0.52606,-0.21655 -1.51625,-0.21794 l -1.1303,-0.001 -0.0999,0.18663 c -0.13355,0.24954 -0.12874,2.37724 0.006,2.6289 l 0.10583,0.19774 1.22084,-0.0387 c 0.97488,-0.0309 1.28257,-0.0754 1.52723,-0.22065 z m 3.69774,4.45022 c 0,-0.0708 0.65574,-1.62301 1.4572,-3.44934 0.80146,-1.82633 1.66623,-3.7982 1.9217,-4.38193 l 0.46451,-1.06133 1.19562,-0.0269 1.19561,-0.0269 0.99859,2.34251 c 0.54922,1.28838 1.07535,2.51618 1.16918,2.72845 0.54134,1.22471 1.63203,3.84216 1.63203,3.91657 0,0.0482 -0.51696,0.0876 -1.14881,0.0876 h -1.14882 l -0.30833,-0.74777 c -0.16958,-0.41126 -0.34311,-0.7848 -0.38561,-0.83008 -0.10293,-0.10965 -3.86314,-0.15944 -4.06462,-0.0538 -0.0866,0.0454 -0.27514,0.37685 -0.41889,0.73652 -0.14375,0.35967 -0.30613,0.70822 -0.36084,0.77455 -0.14647,0.17759 -2.19852,0.16999 -2.19852,-0.008 z m 5.76498,-3.20718 c 0.30529,-0.0381 0.50655,-0.11091 0.50655,-0.18315 0,-0.18824 -1.07248,-2.88251 -1.20356,-3.02357 -0.16426,-0.17676 -0.2964,0.0537 -0.90227,1.57367 -0.545,1.36722 -0.58424,1.55906 -0.33042,1.61519 0.32007,0.0708 1.42437,0.081 1.9297,0.0179 z m 5.42728,-1.19887 v -4.5348 l 0.98898,0.003 0.98897,0.003 1.83321,2.38111 c 2.010171,2.61094 2.341371,3.01518 2.470361,3.01518 0.0489,0 0.0865,-1.17299 0.0865,-2.70158 v -2.70157 h 1.0623 1.06229 l -0.0251,4.51068 -0.0251,4.51067 -0.97514,0.0274 -0.97514,0.0273 -0.57488,-0.75098 c -1.935591,-2.52847 -3.532791,-4.56783 -3.619401,-4.62136 -0.22443,-0.1387 -0.26881,0.31866 -0.27022,2.78492 l -0.001,2.58097 h -1.0131 -1.01309 z m 10.494711,0.26533 c -0.0143,-2.3482 -0.012,-4.3926 0.005,-4.54311 l 0.0313,-0.27365 2.47727,0.0359 2.47728,0.0359 0.75898,0.26495 c 1.97088,0.68801 3.05217,2.20236 3.05217,4.27459 0,1.8028 -1.07344,3.34961 -2.78727,4.01639 -0.87264,0.33951 -1.94352,0.45671 -4.18181,0.45769 l -1.80714,7.3e-4 z m 4.40906,2.42033 c 0.78169,-0.15698 1.3838,-0.58554 1.7399,-1.23839 l 0.28946,-0.53066 v -0.86837 c 0,-0.98858 -0.18232,-1.49816 -0.7389,-2.06524 -0.52927,-0.53925 -1.04835,-0.71851 -2.20792,-0.76247 -0.81351,-0.0309 -1.04077,-0.0101 -1.1353,0.10384 -0.0883,0.10634 -0.11167,0.79813 -0.0925,2.73137 l 0.0257,2.58898 0.24121,0.067 c 0.38728,0.10766 1.27355,0.0953 1.87829,-0.0261 z"
       id="path799" /></g></svg>
