<?xml version="1.0" encoding="UTF-8" standalone="no"?>
<!-- Created with Inkscape (http://www.inkscape.org/) -->

<svg
   width="48.476818mm"
   height="58.248024mm"
   viewBox="0 0 48.476818 58.248024"
   version="1.1"
   id="svg5"
   xml:space="preserve"
   xmlns:inkscape="http://www.inkscape.org/namespaces/inkscape"
   xmlns:sodipodi="http://sodipodi.sourceforge.net/DTD/sodipodi-0.dtd"
   xmlns="http://www.w3.org/2000/svg"
   xmlns:svg="http://www.w3.org/2000/svg"><sodipodi:namedview
     id="namedview7"
     pagecolor="#505050"
     bordercolor="#ffffff"
     borderopacity="1"
     inkscape:showpageshadow="0"
     inkscape:pageopacity="0"
     inkscape:pagecheckerboard="1"
     inkscape:deskcolor="#505050"
     inkscape:document-units="mm"
     showgrid="false" /><defs
     id="defs2" /><g
     inkscape:label="Capa 1"
     inkscape:groupmode="layer"
     id="layer1"
     transform="translate(-56.001592,-107.82016)"><path
       style="fill:#000000;stroke-width:0.129595"
       d="m 72.709314,166.03439 -0.352223,-0.0413 -0.03659,-1.44974 -0.03659,-1.44975 h -0.518382 -0.518383 l -0.03664,1.45796 -0.03664,1.45795 h -0.578935 -0.578936 v -3.56388 -3.56388 h 0.58318 0.58318 v 1.49035 1.49035 h 0.58318 0.583178 v -1.49035 -1.49035 h 0.569316 c 0.345311,0 0.594555,0.0658 0.633466,0.16717 0.03527,0.0919 0.07362,1.68833 0.0852,3.54753 l 0.02106,3.38034 -0.298123,0.0495 c -0.163963,0.0272 -0.45662,0.0309 -0.65034,0.008 z m 1.939265,9.8e-4 c -0.425219,-0.0364 -0.478427,-0.0774 -0.42251,-0.32541 0.214179,-0.95 1.230442,-5.69534 1.323579,-6.18033 l 0.11199,-0.58318 h 0.773479 0.773474 l 0.480067,2.20312 c 0.264037,1.21172 0.604945,2.76827 0.757575,3.45899 0.152624,0.69073 0.246281,1.3064 0.208115,1.36815 -0.08237,0.13327 -0.951294,0.11641 -1.090043,-0.0212 -0.05309,-0.0526 -0.154941,-0.36823 -0.226336,-0.70131 l -0.129814,-0.6056 -0.505812,-0.0414 c -0.913462,-0.0748 -1.078856,0.0297 -1.177078,0.74388 -0.09601,0.69809 -0.157238,0.74588 -0.876686,0.68426 z m 2.321817,-2.71505 c -0.0337,-0.12473 -0.166183,-0.78081 -0.29442,-1.45795 -0.128237,-0.67714 -0.251238,-1.14368 -0.273333,-1.03676 -0.02209,0.10692 -0.147208,0.76299 -0.278022,1.45795 l -0.237841,1.26355 h 0.57244 c 0.482125,0 0.562777,-0.0358 0.511176,-0.22679 z m -11.071012,2.43043 c -0.396913,-0.36978 -0.444762,-0.8119 -0.396987,-3.6681 l 0.04259,-2.54633 0.29519,-0.29492 0.295191,-0.29493 h 1.17398 1.173981 l 0.312768,0.36361 c 0.260654,0.30303 0.312768,0.50277 0.312768,1.19877 v 0.83514 h -0.575728 -0.575729 l -0.03985,-0.53759 c -0.04572,-0.61682 -0.292747,-0.83684 -0.797365,-0.71018 l -0.344048,0.0863 v 2.3377 2.3377 l 0.550781,-0.0398 0.550782,-0.0399 0.03985,-0.55078 0.03985,-0.55078 h 0.590352 0.590353 l -0.05214,0.92276 c -0.07144,1.2643 -0.255469,1.40996 -1.781366,1.40996 -0.94769,0 -1.171862,-0.0412 -1.405226,-0.25868 z m 13.93595,-2.68962 -0.03483,-2.9483 -0.583177,-0.0648 -0.583183,-0.0648 v -0.51838 -0.51838 l 1.781944,-0.036 1.781938,-0.0361 v 0.58684 0.58684 h -0.583182 -0.583178 v 2.9807 2.9807 H 80.450918 79.87017 Z m 3.04098,-0.58318 0.03448,-3.53148 1.16636,-0.0404 c 1.409697,-0.0489 2.039451,0.10913 2.246577,0.56373 0.08302,0.1822 0.150945,0.87966 0.150945,1.5499 0,0.97037 -0.04129,1.24172 -0.202586,1.33199 l -0.20258,0.11337 0.20258,0.16813 c 0.158811,0.13179 0.202586,0.44601 0.202586,1.4541 v 1.28598 l -0.318103,0.3181 -0.318097,0.3181 h -1.498321 -1.498319 z m 2.406735,1.60942 c 0.04712,-0.82345 -0.109144,-1.05864 -0.703382,-1.05864 h -0.437713 v 0.91462 0.91462 l 0.550781,-0.0398 0.550777,-0.0399 z m 0.0015,-2.86258 c 0.07015,-0.98184 -0.03365,-1.17676 -0.62657,-1.17676 h -0.515912 v 0.91462 0.91463 l 0.550782,-0.0399 0.550776,-0.0399 0.04095,-0.57279 z m 2.415503,4.46654 -0.318103,-0.3181 v -2.84976 -2.84977 l 0.309996,-0.36039 0.309996,-0.36039 0.953562,-0.0465 c 1.918062,-0.0936 2.055122,0.14 2.055122,3.50348 0,1.30357 -0.0561,2.56583 -0.12472,2.80501 -0.19237,0.67075 -0.44387,0.7858 -1.7279,0.79045 l -1.139856,0.004 -0.318097,-0.3181 z m 2.065553,-1.05325 c 0.13457,-0.35069 0.087,-4.07318 -0.0555,-4.33937 -0.17013,-0.31789 -0.965808,-0.35145 -1.083142,-0.0457 -0.107317,0.27966 -0.100245,4.39566 0.0077,4.50364 0.180284,0.18029 1.051252,0.089 1.130892,-0.11859 z m 2.80017,-1.60935 v -2.9807 h -0.58318 -0.58318 v -0.58683 -0.58684 l 1.78194,0.0361 1.78194,0.036 0.0399,0.55078 0.0399,0.55078 h -0.59063 -0.59063 v 2.9807 2.9807 h -0.64798 -0.64798 z M 79.29837,148.32364 c -0.569831,-0.20312 -1.299892,-0.85345 -1.604814,-1.42955 -0.122021,-0.23056 -0.206528,-0.71012 -0.207635,-1.17831 -0.0058,-2.46995 2.815844,-3.6712 4.650687,-1.9799 l 0.559343,0.51558 5.032093,-0.0394 5.032101,-0.0394 0.73855,-0.36267 c 0.93934,-0.46126 1.85874,-1.38135 2.29232,-2.29404 l 0.33861,-0.71278 v -9.71966 -9.71967 l -0.36093,-0.68509 c -0.5136,-0.9748 -1.13212,-1.60761 -2.06661,-2.11435 l -0.81235,-0.44051 H 80.254087 67.618518 l -0.621102,0.28675 c -0.926243,0.42762 -2.062866,1.62783 -2.403317,2.53777 l -0.280268,0.74908 v 7.32514 7.32515 l -2.433453,-0.0403 -2.433453,-0.0403 -0.864412,-0.42595 c -0.956598,-0.47137 -1.710225,-1.22818 -2.193448,-2.20272 l -0.303073,-0.61121 -0.0422,-2.66003 -0.0422,-2.66002 0.277403,-0.74143 c 0.599793,-1.60309 2.28765,-2.86626 4.049799,-3.03081 l 0.874746,-0.0817 0.0023,-0.98563 c 0.0049,-2.15969 0.658424,-3.8528 2.069707,-5.36231 1.619041,-1.73173 3.166508,-2.39588 5.87202,-2.52017 1.446282,-0.0664 1.648684,-0.10269 1.581177,-0.28314 -0.04258,-0.11382 -0.321179,-0.73181 -0.619112,-1.37331 l -0.541695,-1.16636 h -0.909885 c -0.753015,0 -0.985107,-0.0537 -1.346174,-0.31117 -0.844963,-0.60264 -1.134723,-1.80523 -0.677531,-2.81194 0.732073,-1.61198 3.149254,-1.62931 3.977059,-0.0285 0.287239,0.55546 0.260848,1.57146 -0.05471,2.10629 l -0.261857,0.44381 1.836958,1.68847 1.836954,1.68847 6.285389,0.002 6.285384,0.002 0.973306,-0.93618 c 0.535323,-0.5149 1.348849,-1.27306 1.807835,-1.6848 l 0.83454,-0.74863 -0.20841,-0.35294 c -0.52638,-0.89142 -0.39272,-2.03605 0.31609,-2.70705 0.58843,-0.55703 0.89698,-0.69137 1.58796,-0.69137 2.03433,0 2.99608,2.4492 1.49447,3.80581 -0.60047,0.54249 -0.95303,0.65411 -1.8069,0.57206 l -0.62446,-0.06 -0.60054,1.30774 c -0.3303,0.71926 -0.60015,1.34268 -0.59968,1.38538 4.9e-4,0.0427 0.74443,0.11247 1.65322,0.15506 2.60311,0.122 3.97502,0.67294 5.55207,2.22962 1.54863,1.52863 2.20012,3.01072 2.34245,5.32882 l 0.0805,1.31136 0.836415,0.0781 c 1.9457,0.18169 3.57666,1.51674 4.11494,3.36835 0.17488,0.60155 0.20731,1.19602 0.17282,3.16748 l -0.0425,2.42695 -0.35458,0.72198 c -0.7653,1.55832 -2.25519,2.59236 -3.87393,2.68867 l -0.859025,0.0511 -0.0628,2.28659 c -0.0554,2.01926 -0.10295,2.41024 -0.40657,3.34435 -0.60763,1.86941 -2.13467,3.63164 -3.89304,4.49263 -1.42746,0.69896 -1.78252,0.73499 -7.242872,0.73499 h -5.039508 l -0.58717,0.51684 c -0.866802,0.763 -1.779675,0.95453 -2.80592,0.58873 z m -0.145763,-8.04632 c -0.142554,-0.033 -0.57994,-0.12267 -0.971969,-0.19932 -1.624719,-0.31768 -3.478572,-1.49719 -4.773159,-3.03694 l -0.596123,-0.70902 h -3.147159 -3.147158 v -0.97196 -0.97197 H 80.25417 93.991295 v 0.97197 0.97196 h -3.10672 -3.106713 l -1.267133,1.2751 c -1.35025,1.35873 -2.410639,2.01382 -3.923839,2.42408 -0.722166,0.19578 -2.958878,0.35607 -3.434283,0.2461 z m -7.063881,-9.63115 c -1.062163,-0.34847 -2.225704,-1.47339 -2.472688,-2.39063 -0.192824,-0.71609 -0.09543,-2.11411 0.188051,-2.69926 0.293359,-0.60554 1.03995,-1.35472 1.702296,-1.7082 0.403626,-0.21541 0.747895,-0.27715 1.555146,-0.27889 0.911727,-0.002 1.121523,0.0446 1.739546,0.38654 1.199348,0.66349 1.860264,1.80206 1.853475,3.193 -0.007,1.42958 -0.787076,2.68455 -2.037624,3.27797 -0.556836,0.26424 -2.007815,0.3902 -2.528202,0.21947 z m 1.711884,-2.09866 c 0.720212,-0.33498 1.055002,-1.33454 0.698562,-2.08568 -0.622886,-1.31264 -2.520738,-1.13018 -2.944151,0.28304 -0.376374,1.25623 1.016455,2.37432 2.245589,1.80264 z m 12.479668,2.03983 c -1.60449,-0.62909 -2.431182,-1.77623 -2.446993,-3.39555 -0.0121,-1.23903 0.446403,-2.19724 1.389689,-2.90429 1.593034,-1.19406 3.520015,-1.01797 4.855941,0.44374 1.66876,1.82589 1.07897,4.61916 -1.206724,5.71505 -0.721588,0.34597 -1.905018,0.41037 -2.591913,0.14105 z m 2.124595,-2.23369 c 1.102212,-0.92745 0.496143,-2.77797 -0.909817,-2.77797 -0.996191,0 -1.669836,0.66583 -1.667509,1.64818 9.79e-4,0.43406 0.389859,1.05846 0.801314,1.28678 0.519615,0.28835 1.332112,0.21653 1.776012,-0.15699 z"
       id="path1063" /></g></svg>
