<?xml version="1.0" encoding="UTF-8" standalone="no"?>
<!-- Created with Inkscape (http://www.inkscape.org/) -->

<svg
   width="105.78756mm"
   height="35.423355mm"
   viewBox="0 0 105.78756 35.423355"
   version="1.1"
   id="svg5"
   xml:space="preserve"
   xmlns:inkscape="http://www.inkscape.org/namespaces/inkscape"
   xmlns:sodipodi="http://sodipodi.sourceforge.net/DTD/sodipodi-0.dtd"
   xmlns="http://www.w3.org/2000/svg"
   xmlns:svg="http://www.w3.org/2000/svg"><sodipodi:namedview
     id="namedview7"
     pagecolor="#505050"
     bordercolor="#ffffff"
     borderopacity="1"
     inkscape:showpageshadow="0"
     inkscape:pageopacity="0"
     inkscape:pagecheckerboard="1"
     inkscape:deskcolor="#505050"
     inkscape:document-units="mm"
     showgrid="false" /><defs
     id="defs2" /><g
     inkscape:label="Capa 1"
     inkscape:groupmode="layer"
     id="layer1"
     transform="translate(-55.905404,-64.544371)"><path
       style="fill:#000000;stroke-width:0.264583"
       d="m 55.991653,99.509005 c -0.08617,-0.224557 -0.112199,-0.432917 -0.05784,-0.463021 0.05436,-0.0301 0.634614,-0.333761 1.289458,-0.674796 0.654843,-0.341035 1.525788,-0.88746 1.935432,-1.214282 l 0.74481,-0.594219 -0.605801,-1.246918 c -0.477168,-0.982155 -0.532915,-1.291961 -0.262548,-1.459056 0.383355,-0.236926 3.277206,-0.47463 9.962065,-0.818298 3.936143,-0.202356 12.17214,-0.760333 23.151042,-1.568452 2.616321,-0.192577 3.381406,-0.171577 3.662037,0.100515 0.295399,0.286411 0.251134,0.440595 -0.264584,0.921639 -0.993865,0.927044 -4.941223,3.550232 -7.190576,4.778444 -1.463751,0.799251 -1.969386,1.197986 -1.719791,1.356196 0.741958,0.470305 1.793499,0.212841 3.045251,-0.745617 2.460723,-1.884154 3.729109,-1.944738 5.924661,-0.282988 0.778584,0.589288 1.718254,1.152374 2.088158,1.251302 0.369903,0.09893 0.672552,0.349896 0.672552,0.557707 0,0.654139 -1.281901,0.577501 -2.258065,-0.135001 -3.113982,-2.272898 -3.34835,-2.281179 -6.078107,-0.214765 -1.638265,1.240165 -3.198222,1.213785 -4.896844,-0.08281 -0.679255,-0.518486 -1.5127,-1.069227 -1.852102,-1.223868 -0.769374,-0.350551 -2.339684,-0.07685 -2.809933,0.489765 -0.712955,0.859057 -2.339108,1.6768 -3.332504,1.675816 -0.959348,-0.0011 -1.481371,-0.259128 -3.483967,-1.72306 -1.237817,-0.904861 -1.952485,-0.828664 -3.800182,0.405181 -0.875009,0.584308 -1.87307,1.133194 -2.217912,1.219745 -1.113189,0.279396 -2.404906,-0.156279 -4.04663,-1.364846 -0.882997,-0.650025 -1.829879,-1.181864 -2.104184,-1.181864 -0.274304,0 -1.077939,0.398423 -1.785855,0.885383 -1.488559,1.023951 -2.854645,1.76045 -3.265337,1.76045 -0.157316,0 -0.356531,-0.183729 -0.442701,-0.408286 z M 69.27243,97.65137 c 2.238245,-1.532361 3.358052,-1.625957 4.976743,-0.415959 2.636505,1.970828 3.179834,2.001851 5.424099,0.309679 1.169093,-0.881497 1.624433,-1.067382 2.614605,-1.067382 0.75334,0 1.530617,0.204967 2.091261,0.551463 l 0.892286,0.551466 2.823022,-1.494145 c 4.28965,-2.270384 6.260854,-3.836035 4.384551,-3.482475 -0.400182,0.07541 -2.215886,0.21114 -4.034896,0.301625 -3.572282,0.1777 -12.847156,0.777724 -18.388542,1.18962 -1.89177,0.140618 -4.808802,0.328832 -6.482291,0.418258 -1.67349,0.08943 -3.082121,0.200568 -3.130291,0.246981 -0.267023,0.257278 0.573103,1.139624 1.205524,1.266108 0.406921,0.08138 1.310685,0.58383 2.008362,1.116544 1.598779,1.220759 2.536968,1.712101 3.273118,1.714175 0.318225,7.94e-4 1.372327,-0.541785 2.342449,-1.205958 z m 52.68556,-5.054219 c -0.34527,-0.345268 -0.16894,-1.165881 0.28663,-1.333968 0.77007,-0.284123 0.85163,-0.625576 0.85585,-3.582871 l 0.004,-2.844271 h 0.92604 0.92604 v 3.439583 3.439584 l -0.52917,0.529166 c -0.51228,0.512287 -2.08522,0.736995 -2.46944,0.352777 z m 34.48403,-0.61736 c 0,-0.610621 0.11905,-0.79375 0.51602,-0.79375 1.05227,0 1.04766,-0.752491 -0.0215,-3.495823 -0.56305,-1.4448 -1.02373,-2.68523 -1.02373,-2.756514 0,-0.07128 0.44365,-0.09266 0.98589,-0.04749 l 0.98589,0.08212 0.50881,1.708973 0.50881,1.708973 0.52909,-1.775118 0.5291,-1.775119 h 0.88662 c 1.04909,0 1.07595,0.169148 0.33676,2.120402 -0.30242,0.798309 -0.78689,2.128071 -1.07661,2.955026 -0.67089,1.914993 -1.58923,2.862072 -2.77523,2.862072 h -0.88996 z M 61.730992,91.594732 c -0.203491,-0.245192 -0.170341,-0.430252 0.120277,-0.671443 0.701673,-0.582335 2.169258,-3.243988 2.868806,-5.202937 0.377095,-1.055986 0.814676,-3.123684 0.989102,-4.673788 0.507662,-4.511548 -0.208661,-7.977595 -2.804662,-13.570838 -1.446327,-3.116198 -1.324893,-3.449168 0.868667,-2.381896 5.490223,2.671255 11.199727,7.711191 14.721792,12.995336 2.323002,3.485195 4.922044,9.731211 4.922044,11.828661 0,0.93305 0.09645,0.938167 -3.571875,-0.189508 -1.915734,-0.588915 -3.057192,-0.756454 -5.838891,-0.857014 -4.009562,-0.14495 -6.062441,0.282127 -9.819799,2.042885 -1.722776,0.80732 -2.232906,0.948705 -2.455461,0.680542 z m 4.084045,-2.671696 c 0.540912,-0.226007 2.133029,-0.654714 3.53804,-0.95268 3.441632,-0.729882 6.683534,-0.5138 11.110627,0.740555 0.776772,0.220089 1.474899,0.337572 1.551395,0.261078 0.26865,-0.268653 -1.040138,-4.028242 -2.214152,-6.360319 -2.160844,-4.292333 -4.628931,-7.534852 -8.213492,-10.790719 -2.684876,-2.438678 -7.749604,-5.815543 -7.749604,-5.166982 0,0.0408 0.406035,1.036921 0.902298,2.213608 1.764633,4.184107 2.139939,5.930259 2.124202,9.883047 -0.01524,3.830995 -0.45244,6.025311 -1.813729,9.103432 -0.359966,0.813945 -0.556514,1.479902 -0.436772,1.479902 0.11974,0 0.660276,-0.184915 1.201187,-0.410922 z m 62.127153,1.548297 c -1.02453,-0.198306 -1.92726,-1.555645 -1.92726,-2.89782 0,-3.338116 4.81366,-3.83476 5.428,-0.560028 0.25549,1.361858 -0.42874,2.77772 -1.57352,3.256037 -0.50988,0.213045 -1.02018,0.371139 -1.134,0.351321 -0.11381,-0.01982 -0.47076,-0.0871 -0.79322,-0.14951 z m 1.46326,-2.547102 c 0.0899,-1.090139 -0.30602,-1.815468 -0.87244,-1.59811 -0.90596,0.34765 -0.59987,2.869798 0.32697,2.69416 0.32465,-0.06152 0.48702,-0.387784 0.54547,-1.09605 z m 22.64942,2.447557 c -1.32906,-0.384865 -1.81166,-1.13234 -1.81166,-2.805996 0,-1.276911 0.0958,-1.551308 0.73291,-2.099328 0.53679,-0.461735 1.05076,-0.630423 1.9208,-0.630423 1.59607,0 2.48676,0.848601 2.48676,2.369225 v 1.070358 h -1.60954 c -1.17203,0 -1.57858,0.0899 -1.4956,0.330729 0.0721,0.209172 0.61503,0.326578 1.47726,0.319432 l 1.3633,-0.0113 v 0.590995 c 0,0.325046 -0.0893,0.641913 -0.19844,0.704149 -0.49787,0.283908 -2.12701,0.376089 -2.86579,0.162155 z m 1.42165,-3.852135 c -0.23818,-0.23818 -0.62088,-0.360981 -0.85044,-0.272888 -0.71923,0.275995 -0.45549,0.705943 0.43305,0.705943 h 0.85045 z M 89.634726,89.95812 c -0.619056,-0.232153 -1.573178,-0.351007 -2.298732,-0.286353 -0.682217,0.06079 -1.341011,0.03942 -1.463982,-0.04749 -0.12297,-0.08691 -0.606869,-1.331706 -1.07533,-2.766205 C 82.517455,79.878736 78.694279,73.913628 74.402648,70.640787 73.07409,69.627615 72.79246,69.061782 73.484554,68.796201 c 0.542383,-0.208132 2.986783,0.963004 4.816838,2.307795 2.410579,1.77138 7.014942,6.50961 8.528976,8.776944 2.236231,3.348855 5.313904,9.897986 4.863216,10.348672 -0.249616,0.249616 -0.896864,0.164266 -2.058858,-0.271492 z m -0.54129,-3.707379 c -1.338164,-2.883159 -1.822963,-3.734226 -3.518765,-6.1772 -1.268301,-1.827115 -5.635953,-6.472405 -6.523278,-6.937939 l -0.529167,-0.277627 0.557472,0.631219 c 2.179423,2.467747 5.036018,7.948647 6.843138,13.129813 l 0.623946,1.788909 1.411682,0.15531 c 0.776422,0.08542 1.616138,0.174721 1.866034,0.198438 0.371589,0.03527 0.238419,-0.422122 -0.731062,-2.510923 z m 14.961084,0.569675 v -3.571875 h 1.18131 c 1.3653,0 1.43007,0.08277 2.13042,2.722372 0.26213,0.987983 0.55654,1.845738 0.65425,1.906127 0.0977,0.06039 0.46572,-0.926558 0.81781,-2.193208 l 0.64017,-2.303 1.25677,-0.08064 1.25677,-0.08064 v 3.586371 3.586372 h -0.96334 -0.96333 l 0.1403,-2.248958 c 0.0772,-1.236928 0.10515,-2.248959 0.0622,-2.248959 -0.043,0 -0.34549,1.012031 -0.67226,2.248959 l -0.59411,2.248958 h -0.97899 -0.97899 l -0.4729,-1.785938 c -0.60131,-2.27091 -0.92732,-2.89279 -0.8669,-1.653645 0.0248,0.509322 0.0211,1.491588 -0.008,2.182812 l -0.0534,1.256771 h -0.79375 -0.79375 z m 9.525,0.79375 v -2.778125 h 0.92604 0.92604 v 2.778125 2.778125 h -0.92604 -0.92604 z m 3.45878,2.080985 c -0.39601,-0.503452 -0.54837,-1.081617 -0.54837,-2.080985 0,-1.798328 0.70113,-2.778125 1.98797,-2.778125 0.49017,0 0.98754,0.148828 1.10527,0.330729 0.13082,0.202123 0.2655,-0.183692 0.34635,-0.992188 l 0.13229,-1.322916 h 0.79375 0.79375 l 0.0734,3.770312 0.0734,3.770313 h -0.7481 c -0.41145,0 -0.87753,-0.129437 -1.03573,-0.287637 -0.20713,-0.207129 -0.3374,-0.207129 -0.46541,0 -0.0978,0.1582 -0.57882,0.287637 -1.06899,0.287637 -0.64767,0 -1.04109,-0.190519 -1.4396,-0.69714 z m 2.57372,-0.943277 c 0.46081,-0.460809 0.40202,-2.047922 -0.0828,-2.233946 -0.92039,-0.353187 -1.50057,0.942451 -0.91336,2.039673 0.31681,0.591968 0.55245,0.637927 0.99611,0.194273 z m 13.41442,1.111306 c -0.37522,-0.414621 -0.48429,-1.001461 -0.50403,-2.711979 l -0.0252,-2.182869 0.98078,-0.08144 0.98078,-0.08144 0.0776,2.044578 c 0.0427,1.124519 0.19662,2.081964 0.34214,2.127657 0.66831,0.209852 0.9979,-0.454429 1.12806,-2.27358 l 0.13567,-1.896147 0.82334,0.08018 0.82334,0.08018 0.0754,2.71198 0.0754,2.711979 h -0.78096 c -0.42953,0 -0.83553,-0.148828 -0.90223,-0.330729 -0.097,-0.264584 -0.19138,-0.264584 -0.47184,0 -0.55855,0.526939 -2.20927,0.408212 -2.75823,-0.198382 z m 6.21766,-2.249014 v -2.778125 h 0.63315 c 0.34824,0 0.70452,0.185978 0.79174,0.413284 l 0.1586,0.413285 0.59004,-0.413285 c 1.01565,-0.71139 1.53064,-0.538871 1.53064,0.512757 0,0.736492 -0.10389,0.926042 -0.50753,0.926042 -1.17746,0 -1.34456,0.250137 -1.34456,2.012683 v 1.691484 h -0.92604 -0.92604 z m 4.55481,0.06615 0.0754,-2.71198 0.63154,-0.08929 c 0.34734,-0.04911 0.72934,0.06896 0.84887,0.262372 0.1731,0.280069 0.28423,0.284784 0.54586,0.02315 0.18069,-0.180684 0.76251,-0.328518 1.29293,-0.328518 1.67394,0 2.05315,0.859396 1.89716,4.29948 l -0.057,1.256768 h -0.92604 -0.92604 v -1.860386 c 0,-1.445067 -0.0926,-1.895912 -0.41466,-2.019509 -0.6886,-0.26424 -1.0099,0.352885 -1.12502,2.160839 l -0.10946,1.719056 h -0.90448 -0.90448 z M 113.62633,83.59748 c 0.0726,-0.633294 0.20523,-0.74581 0.87923,-0.74581 0.67028,0 0.79375,0.102894 0.79375,0.661458 0,0.555932 -0.14027,0.674915 -0.87923,0.74581 l -0.87922,0.08435 z m 9.525,0 c 0.0726,-0.633294 0.20523,-0.74581 0.87923,-0.74581 0.67028,0 0.79375,0.102894 0.79375,0.661458 0,0.555932 -0.14027,0.674915 -0.87923,0.74581 l -0.87922,0.08435 z"
       id="path1020" /></g></svg>
